<svg width="40" height="24" viewBox="0 0 40 24" fill="none" xmlns="http://www.w3.org/2000/svg">
<path d="M8.39445 9.82069C6.95997 9.82069 6.20594 10.2989 6.13238 11.2552V24H0.83583V1.43448H6.13238V7.33793C6.68411 6.93333 7.51169 6.73103 8.61514 6.73103H11.6496C13.4519 6.73103 14.9784 7.09885 16.2289 7.83448C17.5163 8.57012 18.16 9.56322 18.16 10.8138V24H12.8634V11.3655C12.8634 10.3356 12.1094 9.82069 10.6013 9.82069H8.39445ZM31.8963 20.9103C33.4043 20.9103 34.1584 20.3954 34.1584 19.3655V5.51724C34.1584 4.48736 33.4043 3.97241 31.8963 3.97241H27.648V20.9103H31.8963ZM32.9997 0.882759C34.7652 0.882759 36.2733 1.25057 37.5239 1.98621C38.8112 2.72184 39.4549 3.73333 39.4549 5.02069V19.8621C39.4549 21.1494 38.7928 22.1609 37.4687 22.8966C36.2549 23.6322 34.7652 24 32.9997 24H22.3515V0.882759H32.9997Z" fill="#00D646"/>
</svg>
