<svg width="109" height="30" viewBox="0 0 109 30" fill="none" xmlns="http://www.w3.org/2000/svg">
<path d="M8.0507 9.82069C6.61622 9.82069 5.86219 10.2989 5.78863 11.2552V24H0.49208V1.43448H5.78863V7.33793C6.34036 6.93333 7.16794 6.73103 8.27139 6.73103H11.3059C13.1082 6.73103 14.6346 7.09885 15.8852 7.83448C17.1725 8.57012 17.8162 9.56322 17.8162 10.8138V24H12.5197V11.3655C12.5197 10.3356 11.7656 9.82069 10.2576 9.82069H8.0507ZM21.1249 6.67586H37.2353V9.54483L27.3043 20.9103H37.2353V24H21.0146V21.131L31.0008 9.76552H21.1249V6.67586ZM50.1839 20.9103C51.5816 20.9103 52.3172 20.4138 52.3908 19.4207V11.3655C52.3908 10.3356 51.6552 9.82069 50.1839 9.82069H48.3632C46.8552 9.82069 46.1011 10.3356 46.1011 11.3655V19.3655C46.1011 20.3954 46.8552 20.9103 48.3632 20.9103H50.1839ZM40.8046 10.8138C40.8046 9.6 41.4299 8.62529 42.6804 7.88966C43.9678 7.11724 45.5126 6.73103 47.3149 6.73103H49.6873C50.6804 6.73103 51.5816 6.87816 52.3908 7.17241V6.67586H57.6873V29.131H52.3908V23.3379C51.9494 23.7793 51.1402 24 49.9632 24H47.3149C44.4827 24 42.4965 23.2092 41.3563 21.6276C40.9885 21.1126 40.8046 20.5241 40.8046 19.8621V10.8138ZM71.4432 20.9103C72.9512 20.9103 73.7052 20.3954 73.7052 19.3655V5.51724C73.7052 4.48736 72.9512 3.97241 71.4432 3.97241H67.1949V20.9103H71.4432ZM72.5466 0.882759C74.3121 0.882759 75.8202 1.25057 77.0707 1.98621C78.3581 2.72184 79.0018 3.73333 79.0018 5.02069V19.8621C79.0018 21.1494 78.3397 22.1609 77.0156 22.8966C75.8018 23.6322 74.3121 24 72.5466 24H61.8983V0.882759H72.5466ZM94.2697 11.3655C94.2697 10.3356 93.5156 9.82069 92.0076 9.82069H90.6283C89.8559 9.82069 89.1386 10.023 88.4766 10.4276C87.8513 10.8322 87.5386 11.3287 87.5386 11.9172V24H82.2421V6.73103H87.5386V7.77931C88.3846 7.08046 89.58 6.73103 91.1248 6.73103H93.0559C94.8582 6.73103 96.3846 7.09885 97.6352 7.83448C98.9225 8.57012 99.5662 9.56322 99.5662 10.8138V24H94.2697V11.3655ZM103.543 24V1.87586H108.839V24H103.543Z" fill="#00D646"/>
</svg>
